<svg width="251" height="240" viewBox="0 0 251 240" fill="none" xmlns="http://www.w3.org/2000/svg">
<rect x="83.4805" y="239.271" width="161.171" height="195.777" rx="80.5856" transform="rotate(-121.196 83.4805 239.271)" fill="#E57669"/>
<path fill-rule="evenodd" clip-rule="evenodd" d="M91.4739 120.856L116.724 127.752C117.042 135.834 116.201 141.125 114.196 143.62L122.01 148.702L129.824 143.62C127.828 141.125 126.983 135.834 127.296 127.752L152.546 120.856L152.35 129.979H156.926L134.539 136.451L134.156 167.655L161.145 153.521C148.302 144.965 151.121 136.953 161.454 134.441C162.927 128.286 163.345 120.013 162.718 109.61C144.706 86.0943 99.2965 86.0943 81.285 109.61C80.6531 120.01 81.0715 128.286 82.5445 134.441C92.8816 136.953 95.7012 144.965 82.8582 153.521L109.843 167.655L109.468 136.451L87.0768 129.979H91.657L91.4609 120.856H91.4739Z" fill="black"/>
<path fill-rule="evenodd" clip-rule="evenodd" d="M113 73L116.112 90H127.883L131 73C121.796 73 122.199 73 113 73Z" fill="black"/>
</svg>
